<?xml version="1.0" encoding="UTF-8"?><svg xmlns="http://www.w3.org/2000/svg" xmlns:xlink="http://www.w3.org/1999/xlink"><symbol viewBox="0 0 16 16" id="icon-1-column" xmlns="http://www.w3.org/2000/svg"><rect x="1" y="1" width="14" height="14" rx="1"/></symbol><symbol viewBox="0 0 16 16" id="icon-2-column" xmlns="http://www.w3.org/2000/svg"><rect x="1" y="1" width="6" height="14" rx="1"/><rect x="9" y="1" width="6" height="14" rx="1"/></symbol><symbol viewBox="0 0 16 16" id="icon-3-column" xmlns="http://www.w3.org/2000/svg"><rect x="1.5" y="1" width="3" height="14" rx="1"/><rect x="6.5" y="1" width="3" height="14" rx="1"/><rect x="11.5" y="1" width="3" height="14" rx="1"/></symbol><symbol viewBox="0 0 16 16" id="icon-4-column" xmlns="http://www.w3.org/2000/svg"><rect x="1" y="1" width="2" height="14" rx="1"/><rect x="5" y="1" width="2" height="14" rx="1"/><rect x="9" y="1" width="2" height="14" rx="1"/><rect x="13" y="1" width="2" height="14" rx="1"/></symbol><symbol viewBox="0 0 16 16" id="icon-cross" xmlns="http://www.w3.org/2000/svg"><path d="M5.172 3.05L8 5.88l2.828-2.83a1 1 0 011.415 0l.707.707a1 1 0 010 1.415L10.12 8l2.829 2.828a1 1 0 010 1.415l-.707.707a1 1 0 01-1.415 0L8 10.12 5.172 12.95a1 1 0 01-1.415 0l-.707-.707a1 1 0 010-1.415L5.88 8 3.05 5.172a1 1 0 010-1.415l.707-.707a1 1 0 011.415 0z"/></symbol><symbol viewBox="0 0 16 16" id="icon-delete" xmlns="http://www.w3.org/2000/svg"><path d="M1.5 4V3a1 1 0 011-1h3a2 2 0 012-2h1a2 2 0 012 2h3a1 1 0 011 1v1h-13zM13.285 5l-.719 10.071a1 1 0 01-.997.929H4.43a1 1 0 01-.997-.929L2.714 5h10.57zM6.5 7h-1v6h1V7zm2 0h-1v6h1V7zm2 0h-1v6h1V7z"/></symbol><symbol viewBox="0 0 16 16" id="icon-global" xmlns="http://www.w3.org/2000/svg"><path d="M14.062 11.5a7.027 7.027 0 01-3.828 3.135c.581-.784 1.054-1.866 1.363-3.135h2.465zM11.8 10.5c.13-.787.2-1.627.2-2.5 0-.874-.07-1.715-.2-2.503h2.739C14.837 6.274 15 7.118 15 8c0 .88-.163 1.723-.46 2.5H11.8zM14.06 4.497h-2.463c-.31-1.268-.782-2.349-1.363-3.132a7.028 7.028 0 013.827 3.132zM4.403 11.5c.31 1.27.782 2.35 1.363 3.135A7.027 7.027 0 011.938 11.5h2.465zM4.2 5.497C4.07 6.285 4 7.126 4 8c0 .873.07 1.713.2 2.5H1.46A6.978 6.978 0 011 8c0-.882.163-1.726.462-2.503H4.2zM1.94 4.497a7.027 7.027 0 013.826-3.132c-.58.783-1.053 1.864-1.363 3.132H1.94zM10.598 11.5C10.08 13.592 9.11 15 8 15c-1.11 0-2.08-1.408-2.598-3.5h5.196zM5.197 10.5A15.508 15.508 0 015 8c0-.882.07-1.726.198-2.503h5.604C10.93 6.274 11 7.118 11 8c0 .88-.07 1.723-.197 2.5H5.197zM10.597 4.497H5.403C5.922 2.407 6.89 1 8 1s2.078 1.407 2.597 3.497z"/></symbol><symbol viewBox="0 0 16 16" id="icon-menu-arrow" xmlns="http://www.w3.org/2000/svg"><path d="M11.743 7.207a1 1 0 010 1.414l-4.95 4.95a1 1 0 01-1.414 0l-.707-.707a1 1 0 010-1.414l3.534-3.536L4.672 4.38a1 1 0 010-1.415l.707-.707a1 1 0 011.414 0L11.035 6.5l.708.708z"/></symbol><symbol viewBox="0 0 16 16" id="icon-page" xmlns="http://www.w3.org/2000/svg"><path d="M8 0v5a1 1 0 00.883.993L9 6h5v9a1 1 0 01-1 1H3a1 1 0 01-1-1V1a1 1 0 011-1h5zm4 12H4v1h8v-1zm0-2H4v1h8v-1zm0-2H4v1h8V8z"/><path d="M9 0l5 5H9.5a.5.5 0 01-.5-.5V0z"/></symbol><symbol viewBox="0 0 16 16" id="icon-pause" xmlns="http://www.w3.org/2000/svg"><rect x="3" y="1" width="4" height="14" rx="1"/><rect x="9" y="1" width="4" height="14" rx="1"/></symbol><symbol viewBox="0 0 16 16" id="icon-play" xmlns="http://www.w3.org/2000/svg"><path d="M12.024 8.78l-7.4 5.92A1 1 0 013 13.92V2.08a1 1 0 011.625-.78l7.399 5.92a1 1 0 010 1.56z"/></symbol><symbol viewBox="0 0 16 16" id="icon-plus" xmlns="http://www.w3.org/2000/svg"><path d="M8.5 1.5a1 1 0 011 1v4h4a1 1 0 011 1v1a1 1 0 01-1 1h-4v4a1 1 0 01-1 1h-1a1 1 0 01-1-1v-4h-4a1 1 0 01-1-1v-1a1 1 0 011-1h4v-4a1 1 0 011-1h1z"/></symbol><symbol viewBox="0 0 16 16" id="icon-reset" xmlns="http://www.w3.org/2000/svg"><path d="M2.5 1a1 1 0 011 1v1.31A6.5 6.5 0 111.577 9h2.035A4.502 4.502 0 0012.5 8a4.5 4.5 0 00-7.854-3L3.5 4.999V5h3a1 1 0 110 2h-4a1 1 0 01-1-1V2a1 1 0 011-1z"/></symbol><symbol viewBox="0 0 16 16" id="icon-tick" xmlns="http://www.w3.org/2000/svg"><path d="M14.142 2.707l.707.707a1 1 0 010 1.414l-7.77 7.77a1.02 1.02 0 01-.008.009l-.707.707a.995.995 0 01-.53.277l-.118.014h-.118a.996.996 0 01-.648-.291L.707 9.07a1 1 0 010-1.414l.707-.707a1 1 0 011.414 0l2.829 2.828 7.07-7.07a1 1 0 011.415 0z"/></symbol><symbol viewBox="0 0 16 16" id="icon-toggle" xmlns="http://www.w3.org/2000/svg"><path d="M14.743 7.207a1 1 0 010 1.414l-4.95 4.95a1 1 0 01-1.414 0l-.707-.707a1 1 0 010-1.414l3.534-3.536L7.672 4.38a1 1 0 010-1.415l.707-.707a1 1 0 011.414 0L14.035 6.5l.708.708z"/><path d="M8.778 7.207a1 1 0 010 1.414l-4.95 4.95a1 1 0 01-1.414 0l-.707-.707a1 1 0 010-1.414l3.535-3.536L1.707 4.38a1 1 0 010-1.415l.707-.707a1 1 0 011.414 0L8.07 6.5l.708.708z"/></symbol></svg>